<svg width="310" height="90" version="1.1" viewBox="0 0 82.021 23.812" xmlns="http://www.w3.org/2000/svg" xmlns:xlink="http://www.w3.org/1999/xlink"><defs><linearGradient id="a" x1="3" x2="21" y1="12" y2="12" gradientTransform="matrix(6.8902 0 0 4.9839 -20.535 -14.738)" gradientUnits="userSpaceOnUse" xlink:href="#b"/><linearGradient id="b"><stop stop-color="#fd9245" offset="0"/><stop stop-color="#06a96b" offset="1"/></linearGradient></defs><g transform="matrix(1.474 0 0 1.4751 37.551 -.85129)" fill="#86e3bf" data-v-423bf9ae=""><path d="m7.91 6.08q0 0.39-0.12 0.79-0.13 0.4-0.36 0.77-0.24 0.36-0.57 0.69t-0.74 0.58-0.88 0.41q-0.47 0.15-0.98 0.19-0.1 0.01-0.19 0-0.09-0.02-0.17-0.04-0.05-0.02-0.15-0.06t-0.13-0.07q-0.04-0.04-0.11-0.12-0.07-0.09-0.11-0.14-0.02-0.04-0.01-0.11 0-0.08 0-0.19 0-0.09 0-0.2-0.01-0.1 0.01-0.12 0.02-0.01 0.07 0.03 0.05 0.03 0.2 0.05 0.06 0.02 0.14 0.01t0.15-0.02q0.24-0.02 0.56-0.14 0.31-0.11 0.64-0.3 0.34-0.19 0.66-0.45t0.57-0.55q0.25-0.3 0.4-0.62 0.16-0.33 0.16-0.67 0-0.26-0.11-0.5-0.1-0.24-0.32-0.48-0.14-0.16-0.53-0.25-0.4-0.09-0.95-0.09-0.47 0-1.01 0.08-0.54 0.07-1.08 0.25-0.45 0.15-0.78 0.26-0.32 0.11-0.55 0.2t-0.37 0.15q-0.15 0.06-0.26 0.11-0.11 0.04-0.2 0.08t-0.19 0.06q-0.09 0.04-0.15 0.04-0.05 0-0.09 0-0.05-0.01-0.08-0.03-0.02-0.01-0.05-0.03t-0.06-0.02-0.05 0.01-0.05 0-0.06-0.05q-0.04-0.07-0.05-0.12-0.02-0.04-0.02-0.07-0.01-0.03 0-0.06t0.02-0.07 0-0.07q-0.01-0.04-0.01-0.07 0-0.02 0.01-0.05 0.01-0.04 0.05-0.08 0.1-0.07 0.32-0.23t0.54-0.34q0.33-0.19 0.75-0.39t0.91-0.37q0.5-0.16 1.06-0.28 0.57-0.11 1.18-0.12 0.62-0.02 1.08 0.13 0.47 0.15 0.82 0.39t0.59 0.55q0.23 0.32 0.38 0.63 0.14 0.31 0.2 0.61 0.06 0.29 0.07 0.5zm-4.69-0.91q-0.01 0.03-0.02 0.23-0.02 0.2-0.05 0.51-0.02 0.31-0.05 0.71-0.02 0.39-0.05 0.82-0.03 0.44-0.05 0.88-0.03 0.44-0.03 0.84-0.02 0.41-0.02 0.84-0.01 0.44-0.01 0.88 0 0.52 0.02 1.01 0.03 0.5 0.09 0.97 0.03 0.16-0.02 0.24-0.05 0.09-0.05 0.16 0 0.02 0.02 0.04t0.01 0.03q-0.02 0.03-0.07 0.03-0.06-0.01-0.1-0.04-0.02-0.02-0.03-0.05-0.01-0.04-0.03-0.06-0.01-0.02-0.03-0.02t-0.06 0.03-0.08 0.1q-0.05 0.06-0.09 0.12-0.05 0.07-0.1 0.12t-0.1 0.06q-0.04 0.02-0.09 0.03-0.06 0.02-0.08-0.04-0.01-0.03-0.02-0.03-0.02-0.01-0.04-0.02t-0.04-0.03q-0.01-0.02-0.02-0.07-0.03-0.12-0.08-0.17-0.04-0.06-0.04-0.14-0.02-0.11-0.07-0.67-0.05-0.55-0.05-1.53 0-0.39 0.01-0.85 0.01-0.45 0.05-0.97 0.03-0.46 0.08-0.99t0.1-1.04q0.05-0.52 0.09-0.96 0.04-0.45 0.06-0.73 0.01-0.05 0.03-0.06 0.03-0.02 0.08-0.02 0.05-0.01 0.12-0.02 0.08-0.01 0.18-0.05 0.08-0.04 0.2-0.09 0.11-0.04 0.21-0.06t0.16-0.02q0.07 0.01 0.06 0.08zm8.37 4.33q0.01 0.23-0.04 0.58-0.05 0.34-0.11 0.74-0.06 0.39-0.11 0.8-0.06 0.41-0.06 0.77 0 0.24 0.04 0.46 0.03 0.21 0.11 0.37 0.05 0.09 0.05 0.16 0.01 0.07-0.01 0.12-0.01 0.05-0.02 0.09-0.02 0.03 0 0.07 0.01 0.03-0.01 0.08-0.02 0.04-0.06 0.08t-0.09 0.05q-0.06 0.02-0.1-0.01-0.07-0.04-0.12-0.05-0.04-0.01-0.07 0t-0.06 0.03q-0.02 0.01-0.05 0-0.12-0.07-0.26-0.15-0.13-0.08-0.17-0.18-0.03-0.04-0.06-0.13-0.02-0.1-0.04-0.23-0.01-0.13-0.03-0.28-0.01-0.15-0.02-0.29-0.22 0.42-0.48 0.7t-0.51 0.45q-0.26 0.17-0.51 0.24-0.25 0.06-0.45 0.06-0.22 0-0.38-0.05-0.16-0.06-0.25-0.13-0.33-0.34-0.47-0.54-0.14-0.21-0.13-0.34 0.04-0.44 0.21-0.81 0.18-0.37 0.45-0.68t0.6-0.56 0.67-0.44q0.35-0.2 0.68-0.33 0.34-0.14 0.61-0.22-0.01-0.37-0.03-0.64-0.02-0.28-0.05-0.41-0.1-0.42-0.31-0.63-0.22-0.21-0.52-0.21-0.19 0-0.38 0.14-0.2 0.15-0.35 0.39-0.16 0.25-0.26 0.57t-0.11 0.68q0 0.09 0.01 0.17t0.02 0.17q0.01 0.05-0.03 0.07t-0.09 0.03q-0.06 0.01-0.12 0.01-0.06 0.01-0.1 0.02-0.04 0.02-0.06 0.02-0.02 0.01-0.04 0-0.02-0.02-0.05-0.04-0.03-0.03-0.08-0.07-0.06-0.04-0.12-0.07-0.05-0.03-0.1-0.05-0.04-0.02-0.07-0.03-0.04-0.02-0.04-0.05 0-0.42 0.19-0.87 0.19-0.46 0.51-0.83t0.74-0.61 0.89-0.24q0.38 0 0.66 0.12 0.28 0.11 0.48 0.3 0.2 0.18 0.33 0.41 0.12 0.22 0.19 0.45 0.08 0.23 0.11 0.43 0.03 0.21 0.03 0.34zm-1.23 1.89v-0.68q-0.21 0.08-0.45 0.2-0.25 0.12-0.5 0.29-0.26 0.17-0.51 0.39t-0.47 0.48q-0.26 0.31-0.38 0.55-0.11 0.24-0.14 0.41-0.03 0.16 0.01 0.26 0.04 0.09 0.1 0.12 0.21 0.08 0.44 0.01 0.23-0.06 0.46-0.23t0.44-0.4q0.22-0.24 0.41-0.49t0.34-0.49 0.25-0.42zm6.52 1.82q0 0.08-0.05 0.18-0.06 0.1-0.17 0.1-0.06 0-0.1-0.04-0.03-0.03-0.06-0.03-0.05 0-0.1 0.03-0.04 0.04-0.14 0.04-0.14 0-0.24-0.1t-0.16-0.25q-0.06-0.16-0.09-0.34t-0.03-0.34q0-0.31 0.02-0.7t0.05-0.81q0.04-0.41 0.06-0.82t0.02-0.76q0-0.46-0.06-0.72t-0.22-0.26q-0.15 0.02-0.3 0.26-0.16 0.24-0.33 0.61-0.16 0.37-0.32 0.84-0.15 0.47-0.3 0.96t-0.28 0.95-0.23 0.82-0.18 0.59q-0.07 0.22-0.1 0.22-0.06 0-0.08-0.03-0.03-0.02-0.05-0.05-0.03-0.02-0.06-0.05-0.04-0.02-0.1-0.02-0.07 0-0.09 0.01t-0.04 0.04q-0.03 0.02-0.07 0.03t-0.15 0.01q-0.12 0-0.24-0.06t-0.12-0.19q0-0.08 0.03-0.34 0.03-0.25 0.06-0.63 0.04-0.37 0.09-0.83 0.04-0.46 0.08-0.95 0.04-0.5 0.06-0.99 0.03-0.49 0.03-0.94 0-0.21-0.01-0.4 0-0.19 0-0.36 0-0.04 0.04-0.04 0.08 0 0.12 0.03 0.05 0.03 0.07 0.06 0.02 0.04 0.02 0.07 0.01 0.03 0.01 0.03 0.02 0 0.05-0.02 0.03-0.03 0.06-0.06 0.03-0.02 0.06-0.05 0.02-0.02 0.04-0.02h0.07q0.11 0 0.15-0.03t0.05-0.07q0.02-0.04 0.03-0.07t0.04-0.03q0.02 0 0.06 0.03t0.07 0.1q0.04 0.08 0.07 0.19 0.03 0.12 0.03 0.28 0 0.22-0.02 0.56-0.02 0.33-0.04 0.71-0.03 0.38-0.05 0.77-0.02 0.38-0.02 0.7 0.07-0.3 0.18-0.66 0.1-0.36 0.24-0.72 0.14-0.37 0.31-0.73 0.16-0.35 0.35-0.62t0.41-0.44q0.21-0.17 0.44-0.17 0.37 0 0.6 0.14 0.24 0.13 0.38 0.37 0.13 0.24 0.19 0.56 0.05 0.32 0.05 0.69 0 0.32-0.03 0.66-0.03 0.35-0.06 0.69-0.03 0.35-0.05 0.68-0.03 0.34-0.03 0.63 0 0.37 0.04 0.66t0.04 0.44zm5.73-2.2q0 0.07 0.01 0.17 0.01 0.11 0.01 0.24 0 0.16-0.05 0.4-0.05 0.25-0.15 0.51-0.11 0.27-0.29 0.54-0.18 0.26-0.44 0.47-0.26 0.22-0.61 0.35t-0.8 0.13q-0.4 0-0.82-0.15-0.43-0.16-0.77-0.48-0.35-0.32-0.57-0.83-0.22-0.5-0.22-1.2 0-0.43 0.11-0.86 0.12-0.42 0.3-0.8 0.19-0.37 0.45-0.69 0.25-0.32 0.54-0.55 0.28-0.23 0.59-0.36 0.3-0.13 0.59-0.13 0.5 0 0.82 0.16 0.33 0.16 0.52 0.39t0.27 0.49q0.08 0.27 0.08 0.48t-0.1 0.47-0.33 0.5q-0.22 0.23-0.59 0.39-0.36 0.16-0.88 0.16-0.28 0-0.51-0.07-0.22-0.08-0.39-0.2t-0.29-0.26-0.2-0.27q-0.13 0.43-0.13 1 0 0.39 0.12 0.7 0.11 0.31 0.31 0.53t0.47 0.33q0.27 0.12 0.6 0.12 0.41 0 0.72-0.14t0.54-0.35q0.23-0.22 0.39-0.47 0.17-0.25 0.29-0.45 0.13-0.21 0.22-0.35t0.18-0.13q0.04 0 0.04 0.07 0 0.03-0.01 0.07 0 0.03-0.02 0.07zm-2.05-2.55q-0.13 0-0.32 0.05-0.2 0.06-0.41 0.19-0.22 0.13-0.43 0.35t-0.37 0.56q0.1-0.05 0.17-0.08t0.1-0.03q0.01 0 0.04 0.02 0.16 0.27 0.39 0.38 0.24 0.11 0.53 0.11 0.23 0 0.4-0.07 0.17-0.08 0.28-0.21 0.11-0.12 0.16-0.27 0.04-0.14 0.04-0.29 0-0.3-0.15-0.51-0.16-0.2-0.43-0.2zm4.33-4.08q0 0.09-0.01 0.37-0.02 0.28-0.04 0.67-0.02 0.4-0.04 0.87-0.03 0.46-0.05 0.93-0.03 0.47-0.05 0.91t-0.03 0.76q-0.01 0.2-0.02 0.44 0 0.24 0 0.51 0 0.37 0 0.76 0.01 0.39 0.01 0.78 0.01 0.38 0.02 0.73t0.02 0.63 0.01 0.47 0 0.24q0 0.09-0.03 0.14t-0.07 0.07q-0.05 0.02-0.1 0.01-0.04-0.01-0.08-0.03t-0.06-0.05q-0.03-0.03-0.04-0.04t-0.02-0.01q-0.02 0.01-0.02 0.06-0.02 0.17-0.08 0.26t-0.12 0.12q-0.07 0.03-0.12 0.02-0.06-0.01-0.07-0.05-0.02-0.03-0.05-0.04t-0.06-0.01q-0.04 0-0.07-0.02t-0.03-0.07q-0.06-0.23-0.07-0.59-0.02-0.36-0.02-0.81 0-0.39 0.01-0.84t0.01-0.93q0-0.27 0-0.54t-0.02-0.55v-0.43q0-0.55 0.03-1.11t0.07-1.07 0.09-0.97q0.05-0.45 0.08-0.8 0.04-0.34 0.06-0.56t0.01-0.28q-0.01-0.04 0.01-0.06t0.05-0.03q0.03 0 0.06-0.01 0.04 0 0.06-0.01 0.05-0.03 0.08-0.02t0.05 0.03 0.04 0.05q0.02 0.02 0.05 0.02 0.04-0.01 0.07-0.02 0.02-0.02 0.04-0.04t0.03-0.03q0.02-0.01 0.05-0.01 0.05 0.02 0.1 0.02t0.05-0.02q0.02-0.05 0.05-0.05 0.02 0.01 0.06 0.04t0.07 0.07 0.03 0.12zm5.25 3.75q0.02 0.04 0.02 0.08 0.01 0.04 0.01 0.1 0 0.21-0.23 0.45t-0.72 0.44q-0.11 0.04-0.19 0.04-0.1 0-0.17-0.06-0.07-0.05-0.07-0.12 0-0.04 0.05-0.09 0.05-0.06 0.11-0.11 0.05-0.06 0.11-0.1 0.05-0.05 0.05-0.08 0-0.05-0.09-0.05-0.14 0-0.35 0.08-0.21 0.07-0.45 0.2-0.23 0.13-0.48 0.27-0.24 0.15-0.43 0.29t-0.31 0.25-0.12 0.16q0 0.03 0.05 0.03h0.2q0.19 0 0.48 0.02t0.61 0.07q0.32 0.06 0.64 0.17 0.33 0.1 0.59 0.28 0.25 0.18 0.42 0.43 0.16 0.26 0.16 0.6 0 0.18-0.06 0.38-0.06 0.21-0.2 0.41-0.15 0.21-0.4 0.43-0.26 0.21-0.65 0.43-0.58 0.31-1.09 0.46t-0.92 0.15q-0.54 0-0.84-0.24-0.31-0.24-0.31-0.68 0-0.33 0.13-0.56 0.12-0.24 0.29-0.39t0.35-0.22q0.17-0.08 0.25-0.08 0.05 0 0.08-0.01t0.06-0.01q0.06 0 0.06 0.08v0.07q0 0.04 0.02 0.07t0.02 0.06q0 0.04-0.09 0.13-0.1 0.08-0.22 0.19t-0.22 0.23q-0.09 0.12-0.09 0.24 0 0.14 0.21 0.14 0.28 0 0.58-0.11 0.31-0.11 0.6-0.27t0.55-0.37 0.46-0.41 0.32-0.37q0.11-0.18 0.11-0.28 0-0.12-0.14-0.2-0.14-0.07-0.38-0.12t-0.56-0.07q-0.33-0.01-0.68-0.01-0.37 0-0.61 0.03-0.25 0.04-0.3 0.04-0.04 0-0.13-0.01-0.1-0.01-0.19-0.07-0.09-0.05-0.16-0.15t-0.07-0.29q0-0.13 0.06-0.3 0.06-0.16 0.21-0.35 0.14-0.19 0.4-0.41 0.26-0.21 0.65-0.45 0.42-0.26 0.78-0.42 0.37-0.16 0.67-0.25t0.52-0.12q0.23-0.03 0.36-0.03 0.3 0 0.45 0.08t0.23 0.28z" fill="#088352"/></g><g transform="matrix(.27096 0 0 .26035 -.31583 .17247)" fill="none" stroke="url(#a)" stroke-linecap="round" stroke-linejoin="round" stroke-width="11.72"><path d="m62.147 5.1976-55.121 19.936 55.121 19.936 55.121-19.936-55.121-19.936"/><path d="m7.0256 45.069 55.121 19.936 55.121-19.936"/><path d="m7.0256 65.004 55.121 19.936 55.121-19.936"/></g></svg>